<svg width="128" height="147" viewBox="0 0 128 147" fill="none" xmlns="http://www.w3.org/2000/svg">
<path fill-rule="evenodd" clip-rule="evenodd" d="M62.9783 4.0023C58.328 6.44558 53.4665 8.99989 49.188 8.42589C48.6047 8.34763 47.9889 8.25775 47.3452 8.1638C39.3256 6.99325 26.9789 5.19111 19.2573 17.3784C14.1526 25.4354 14.8479 28.8698 15.896 34.0468C16.2181 35.6373 16.5734 37.3923 16.804 39.4963C17.7854 48.4488 14.9395 54.4523 5.51868 61.6143C-3.9021 68.7763 1.59336 88.9984 1.59336 88.9984C2.24757 91.8071 5.12612 98.8988 11.4067 104.797C19.2573 112.17 21.22 114.276 21.22 126.915C21.22 139.554 28.58 150.086 38.884 144.82C45.478 141.45 54.4833 143.471 62.2994 145.226C66.6969 146.213 70.7179 147.116 73.7213 146.926C76.7824 147.12 80.8347 146.087 85.2477 144.962C92.8599 143.022 101.545 140.809 108.068 144.142C117.614 149.021 124.633 140.34 125.614 128.987C102.671 120.979 86.2117 99.1497 86.2117 73.4759C86.2117 46.9205 103.821 24.478 128 17.1887C127.901 17.0279 127.799 16.8653 127.694 16.7007C119.973 4.51346 107.626 6.31559 99.6066 7.48615C98.9629 7.5801 98.3471 7.66998 97.7638 7.74823C93.4754 8.32357 88.7477 5.95831 84.2206 3.69342C80.4602 1.81209 76.8382 2.39275e-06 73.7213 0C70.5957 -2.39938e-06 66.8606 1.96245 62.9783 4.0023Z" fill="url(#paint0_linear_213_7457)"/>
<path fill-rule="evenodd" clip-rule="evenodd" d="M64.5179 14.1918C60.5498 16.2767 56.4012 18.4564 52.7502 17.9666C52.2525 17.8998 51.727 17.8231 51.1777 17.7429C44.3343 16.7441 33.7985 15.2062 27.2094 25.606C22.8534 32.4814 23.4467 35.4121 24.3411 39.8297C24.6159 41.187 24.9191 42.6846 25.1159 44.48C25.9533 52.1195 23.5248 57.2424 15.4858 63.354C7.4467 69.4656 12.1362 86.7218 12.1362 86.7218C12.6944 89.1185 15.1508 95.1702 20.5102 100.203C27.2094 106.495 28.8842 108.292 28.8842 119.077C28.8842 129.862 35.1647 138.85 43.9575 134.356C49.5844 131.48 57.2689 133.205 63.9386 134.703C67.6912 135.545 71.1225 136.315 73.6853 136.154C76.2975 136.319 79.7554 135.437 83.5212 134.478C90.0169 132.822 97.4284 130.933 102.994 133.778C109.839 137.276 115.161 132.605 117.184 125.275C98.7456 115.356 86.2117 95.8797 86.2117 73.4759C86.2117 51.0905 98.725 31.6277 117.138 21.7008C110.61 14.9992 101.773 16.289 95.7741 17.1647C95.2248 17.2448 94.6994 17.3215 94.2016 17.3883C90.5422 17.8793 86.5079 15.8609 82.6447 13.9282C79.4359 12.3228 76.3451 10.7765 73.6853 10.7765C71.0182 10.7765 67.8309 12.4511 64.5179 14.1918Z" fill="#84C5C4"/>
<g filter="url(#filter0_f_213_7457)">
<path fill-rule="evenodd" clip-rule="evenodd" d="M90.3334 132.961C88.0302 133.382 85.7248 133.97 83.5244 134.531C79.7586 135.49 76.3007 136.372 73.6885 136.207C71.1257 136.369 67.6944 135.598 63.9418 134.756C60.2211 133.921 56.1844 133.014 52.3654 132.876C49.2016 118.721 50.8876 99.3662 61.8019 73.4759C64.2094 91.3662 72.7129 117.903 90.3334 132.961Z" fill="#72B7B5"/>
</g>
<defs>
<filter id="filter0_f_213_7457" x="48.9432" y="71.4759" width="43.3901" height="66.7526" filterUnits="userSpaceOnUse" color-interpolation-filters="sRGB">
<feFlood flood-opacity="0" result="BackgroundImageFix"/>
<feBlend mode="normal" in="SourceGraphic" in2="BackgroundImageFix" result="shape"/>
<feGaussianBlur stdDeviation="1" result="effect1_foregroundBlur_213_7457"/>
</filter>
<linearGradient id="paint0_linear_213_7457" x1="73.4759" y1="0" x2="73.4759" y2="146.952" gradientUnits="userSpaceOnUse">
<stop offset="0.269" stop-color="#DEFFFE"/>
<stop offset="0.664" stop-color="#84C5C4"/>
<stop offset="0.769" stop-color="#72B7B5"/>
</linearGradient>
</defs>
</svg>